<?xml version="1.0" encoding="UTF-8"?><svg xmlns="http://www.w3.org/2000/svg" xmlns:xlink="http://www.w3.org/1999/xlink" fill-opacity="1" color-rendering="auto" color-interpolation="auto" text-rendering="auto" stroke="black" stroke-linecap="square" width="875" stroke-miterlimit="10" shape-rendering="auto" stroke-opacity="1" fill="black" stroke-dasharray="none" font-weight="normal" stroke-width="1" height="532" font-family="'Dialog'" font-style="normal" stroke-linejoin="miter" font-size="12px" stroke-dashoffset="0" image-rendering="auto">
  <!--Generated by ySVG 2.5-->
  <defs id="genericDefs"/>
  <g>
    <defs id="defs1">
      <clipPath clipPathUnits="userSpaceOnUse" id="clipPath1">
        <path d="M0 0 L875 0 L875 532 L0 532 L0 0 Z"/>
      </clipPath>
      <clipPath clipPathUnits="userSpaceOnUse" id="clipPath2">
        <path d="M-92 238 L783 238 L783 770 L-92 770 L-92 238 Z"/>
      </clipPath>
    </defs>
    <g fill="white" text-rendering="geometricPrecision" shape-rendering="geometricPrecision" transform="translate(92,-238)" stroke="white">
      <rect x="-92" width="875" height="532" y="238" clip-path="url(#clipPath2)" stroke="none"/>
    </g>
    <g fill="rgb(229,229,229)" text-rendering="geometricPrecision" shape-rendering="geometricPrecision" transform="matrix(1,0,0,1,92,-238)" stroke="rgb(229,229,229)">
      <rect x="-76.0191" width="844" height="501" y="253.5" clip-path="url(#clipPath2)" stroke="none"/>
    </g>
    <g font-size="18px" stroke-linecap="butt" transform="matrix(1,0,0,1,92,-238)" text-rendering="geometricPrecision" font-family="'Arial'" shape-rendering="geometricPrecision" font-weight="bold" stroke-miterlimit="1.45">
      <text x="-64.0191" xml:space="preserve" y="281.7949" clip-path="url(#clipPath2)" stroke="none">Scenario Gym overview </text>
    </g>
    <g fill="rgb(249,249,249)" text-rendering="geometricPrecision" shape-rendering="geometricPrecision" transform="matrix(1,0,0,1,92,-238)" stroke="rgb(249,249,249)">
      <rect x="181.6113" width="568" height="437" y="301" clip-path="url(#clipPath2)" stroke="none"/>
    </g>
    <g font-size="16px" stroke-linecap="butt" transform="matrix(1,0,0,1,92,-238)" text-rendering="geometricPrecision" font-family="'Arial'" shape-rendering="geometricPrecision" font-weight="bold" stroke-miterlimit="1.45">
      <text x="193.6113" xml:space="preserve" y="327.4844" clip-path="url(#clipPath2)" stroke="none">Dynamic agents</text>
      <rect x="385.7882" y="344" clip-path="url(#clipPath2)" fill="none" width="160" rx="4" ry="4" height="30"/>
      <text x="444.882" xml:space="preserve" y="364.5469" clip-path="url(#clipPath2)" font-weight="normal" stroke="none">Agent</text>
      <rect x="545" y="506.7882" clip-path="url(#clipPath2)" fill="none" width="160" rx="4" ry="4" height="30"/>
      <text x="590.3203" xml:space="preserve" y="527.3351" clip-path="url(#clipPath2)" font-weight="normal" stroke="none">Controller</text>
      <rect x="385.7882" y="669.5764" clip-path="url(#clipPath2)" fill="none" width="160" rx="4" ry="4" height="30"/>
      <text x="445.7804" xml:space="preserve" y="690.1233" clip-path="url(#clipPath2)" font-weight="normal" stroke="none">Entity</text>
      <rect x="223" y="506.7882" clip-path="url(#clipPath2)" fill="none" width="160" rx="4" ry="4" height="30"/>
      <text x="277.6523" xml:space="preserve" y="527.3351" clip-path="url(#clipPath2)" font-weight="normal" stroke="none">Sensor</text>
    </g>
    <g fill="rgb(249,249,249)" text-rendering="geometricPrecision" shape-rendering="geometricPrecision" transform="matrix(1,0,0,1,92,-238)" stroke="rgb(249,249,249)">
      <rect x="-60.5382" width="223.5" height="437" y="303.2882" clip-path="url(#clipPath2)" stroke="none"/>
    </g>
    <g font-size="16px" stroke-linecap="butt" transform="matrix(1,0,0,1,92,-238)" text-rendering="geometricPrecision" font-family="'Arial'" shape-rendering="geometricPrecision" font-weight="bold" stroke-miterlimit="1.45">
      <text x="-48.5382" xml:space="preserve" y="329.7726" clip-path="url(#clipPath2)" stroke="none">Static road network</text>
      <rect x="-52.7882" y="369" clip-path="url(#clipPath2)" fill="none" width="160" rx="4" ry="4" height="30"/>
      <text x="-22.1475" xml:space="preserve" y="389.5469" clip-path="url(#clipPath2)" font-weight="normal" stroke="none">Road network</text>
      <rect x="-8.3887" y="441.5" clip-path="url(#clipPath2)" fill="none" width="160" rx="4" ry="4" height="30"/>
      <text x="9.3613" xml:space="preserve" y="462.0469" clip-path="url(#clipPath2)" font-weight="normal" stroke="none">Driveable surface</text>
      <rect x="-8.3887" y="514" clip-path="url(#clipPath2)" fill="none" width="160" rx="4" ry="4" height="30"/>
      <text x="17.8105" xml:space="preserve" y="534.5469" clip-path="url(#clipPath2)" font-weight="normal" stroke="none">Road markings</text>
      <rect x="-8.3887" y="586.5" clip-path="url(#clipPath2)" fill="none" width="160" rx="4" ry="4" height="30"/>
      <text x="22.2636" xml:space="preserve" y="607.0469" clip-path="url(#clipPath2)" font-weight="normal" stroke="none">Traffic signals</text>
      <rect x="-8.3887" y="659" clip-path="url(#clipPath2)" fill="none" width="160" rx="4" ry="4" height="30"/>
      <text x="28.4902" xml:space="preserve" y="679.5469" clip-path="url(#clipPath2)" font-weight="normal" stroke="none">Traffic signs</text>
      <path fill="none" d="M480.4617 374.0031 L604.7443 501.0775" clip-path="url(#clipPath2)"/>
      <path d="M610.338 506.7968 L605.522 494.7218 L604.045 500.3626 L598.3729 501.7139 Z" stroke="none" clip-path="url(#clipPath2)"/>
      <text x="568.9745" y="442.6418" clip-path="url(#clipPath2)" font-family="sans-serif" stroke="none" font-weight="normal" xml:space="preserve">Action</text>
      <path fill="none" d="M610.3265 536.7913 L486.0439 663.8657" clip-path="url(#clipPath2)"/>
      <path d="M480.4503 669.585 L492.4153 664.5021 L486.7431 663.1508 L485.2662 657.5099 Z" stroke="none" clip-path="url(#clipPath2)"/>
      <text x="569.9523" y="612.5051" clip-path="url(#clipPath2)" font-family="sans-serif" stroke="none" font-weight="normal" xml:space="preserve">Pose</text>
      <path fill="none" d="M450.7852 669.5734 L323.6483 542.4365" clip-path="url(#clipPath2)"/>
      <path d="M317.9914 536.7796 L322.9411 548.8004 L324.3553 543.1436 L330.0122 541.7294 Z" stroke="none" clip-path="url(#clipPath2)"/>
      <text x="322.3471" y="612.7227" clip-path="url(#clipPath2)" font-family="sans-serif" stroke="none" font-weight="normal" xml:space="preserve">State</text>
      <path fill="none" d="M318.0031 506.7852 L445.14 379.6483" clip-path="url(#clipPath2)"/>
      <path d="M450.7968 373.9914 L438.776 378.9411 L444.4329 380.3553 L445.8471 386.0122 Z" stroke="none" clip-path="url(#clipPath2)"/>
      <text x="279.5541" y="437.3107" clip-path="url(#clipPath2)" font-family="sans-serif" stroke="none" font-weight="normal" xml:space="preserve">Observation</text>
      <path fill="none" d="M49.4116 399 L49.4116 433.4585" clip-path="url(#clipPath2)"/>
      <path d="M49.4116 441.4585 L54.4116 429.4585 L49.4116 432.4585 L44.4116 429.4585 Z" stroke="none" clip-path="url(#clipPath2)"/>
      <path fill="none" d="M-23.6219 399 L-23.6219 529 L-16.4185 529" clip-path="url(#clipPath2)"/>
      <path d="M-8.4185 529 L-20.4185 524 L-17.4185 529 L-20.4185 534 Z" stroke="none" clip-path="url(#clipPath2)"/>
      <path fill="none" d="M-34.0884 399 L-34.0884 601.5 L-16.4138 601.5" clip-path="url(#clipPath2)"/>
      <path d="M-8.4138 601.5 L-20.4138 596.5 L-17.4138 601.5 L-20.4138 606.5 Z" stroke="none" clip-path="url(#clipPath2)"/>
      <path fill="none" d="M-44.5549 399 L-44.5549 674 L-16.424 674" clip-path="url(#clipPath2)"/>
      <path d="M-8.424 674 L-20.424 669 L-17.424 674 L-20.424 679 Z" stroke="none" clip-path="url(#clipPath2)"/>
    </g>
  </g>
</svg>
